<svg width="513.000000" height="512.000000" viewBox="0 0 513 512" fill="none" xmlns="http://www.w3.org/2000/svg" xmlns:xlink="http://www.w3.org/1999/xlink">
	<desc>
			Created with Pixso.
	</desc>
	<defs/>
	<path id="path" d="M493.24 192.47L331.43 30.63C321.42 20.65 309.88 12.96 296.81 7.55C283.74 2.15 270.14 -0.55 256 -0.55C241.86 -0.55 228.25 2.15 215.18 7.55C202.12 12.96 190.57 20.65 180.56 30.63L18.75 192.47C6.2 204.94 -0.06 220.02 0 237.72L0 447.14C0 464.82 6.24 479.9 18.74 492.4C31.24 504.9 46.32 511.14 64 511.14L448 511.14C465.67 511.14 480.75 504.9 493.25 492.4C505.75 479.9 512 464.82 512 447.14L512 237.72C512.05 220.02 505.8 204.94 493.24 192.47ZM320 468.48L192 468.48L192 384.55C192 366.88 198.24 351.79 210.74 339.3C223.24 326.8 238.32 320.55 256 320.55C273.67 320.55 288.75 326.8 301.25 339.3C313.75 351.79 320 366.88 320 384.55L320 468.48ZM469.33 447.14C469.33 461.37 462.22 468.48 448 468.48L362.66 468.48L362.66 384.55C362.66 370.41 359.96 356.8 354.54 343.73C349.13 330.67 341.42 319.13 331.42 309.13C321.42 299.13 309.88 291.42 296.82 286.01C283.75 280.59 270.14 277.89 256 277.89C241.85 277.89 228.24 280.59 215.18 286.01C202.11 291.42 190.57 299.13 180.57 309.13C170.57 319.13 162.86 330.67 157.45 343.73C152.03 356.8 149.33 370.41 149.33 384.55L149.33 468.48L64 468.48C49.77 468.48 42.66 461.37 42.66 447.14L42.66 237.72C42.68 231.83 44.77 226.81 48.91 222.63L210.73 60.86C223.24 48.4 238.33 42.17 256 42.17C273.66 42.17 288.75 48.4 301.26 60.86L463.08 222.7C467.21 226.85 469.29 231.86 469.33 237.72L469.33 447.14Z" fill="#95989C" fill-opacity="1.000000" fill-rule="nonzero"/>
</svg>
