<svg width="512.000000" height="512.000000" viewBox="0 0 512 512" fill="none" xmlns="http://www.w3.org/2000/svg" xmlns:xlink="http://www.w3.org/1999/xlink">
	<desc>
			Created with Pixso.
	</desc>
	<defs>
		<clipPath id="clip291_7">
			<rect id="login_black.svg" width="512.000000" height="512.000000" fill="white" fill-opacity="0"/>
		</clipPath>
	</defs>
	<g clip-path="url(#clip291_7)">
		<path id="path" d="M64.36 288L308.37 288L251 345.36L296.25 390.63L385.62 301.24C398.11 288.75 404.36 273.66 404.36 256C404.36 238.33 398.11 223.24 385.62 210.75L296.02 121.15L250.73 166.4L308.33 224L64.36 224L64.36 288Z" fill="#FFFFFF" fill-opacity="1.000000" fill-rule="nonzero"/>
		<path id="path" d="M437.33 0L74.66 0C53.89 0.16 36.22 7.64 21.65 22.43C7.07 37.22 -0.15 55 0 75.77L0 168.53L64 168.53L64 75.77C63.62 68.28 67.17 64.36 74.66 64L437.33 64C444.76 64.36 448.32 68.25 448 75.69L448 436.22C448.32 443.65 444.76 447.55 437.33 447.91L74.66 447.91C67.23 447.55 63.68 443.65 64 436.22L64 343.46L0 343.46L0 436.3C-0.12 457.06 7.1 474.82 21.68 489.59C36.25 504.36 53.91 511.83 74.66 512L437.33 512C458.1 511.83 475.77 504.35 490.34 489.56C504.92 474.77 512.14 456.99 512 436.22L512 75.77C512.14 55 504.92 37.22 490.34 22.43C475.77 7.64 458.1 0.16 437.33 0Z" fill="#FFFFFF" fill-opacity="1.000000" fill-rule="nonzero"/>
	</g>
</svg>
