<?xml version="1.0" encoding="UTF-8"?>
<!DOCTYPE svg PUBLIC "-//W3C//DTD SVG 1.1//EN" "http://www.w3.org/Graphics/SVG/1.1/DTD/svg11.dtd">
<svg xmlns="http://www.w3.org/2000/svg" version="1.1" width="64px" height="64px" style="shape-rendering:geometricPrecision; text-rendering:geometricPrecision; image-rendering:optimizeQuality; fill-rule:evenodd; clip-rule:evenodd" xmlns:xlink="http://www.w3.org/1999/xlink">
<g><path style="opacity:0.905" fill="#c9cfcd" d="M 7.5,-0.5 C 18.1667,-0.5 28.8333,-0.5 39.5,-0.5C 41.1638,1.67915 40.8305,3.51248 38.5,5C 28.401,5.04937 18.401,5.71604 8.5,7C 7.29857,7.90252 6.46524,9.06919 6,10.5C 5.33333,24.5 5.33333,38.5 6,52.5C 6.46524,53.9308 7.29857,55.0975 8.5,56C 18.729,57.4512 29.0623,57.9512 39.5,57.5C 39.1033,52.0414 39.6033,46.7081 41,41.5C 41.7504,40.8742 42.5838,40.3742 43.5,40C 48.1548,39.5008 52.8215,39.3342 57.5,39.5C 57.3341,34.4889 57.5007,29.4889 58,24.5C 59.6805,22.5722 61.5138,22.2388 63.5,23.5C 63.5,31.8333 63.5,40.1667 63.5,48.5C 59.5,54.5 54.5,59.5 48.5,63.5C 34.8333,63.5 21.1667,63.5 7.5,63.5C 4.16667,61.5 1.5,58.8333 -0.5,55.5C -0.5,39.5 -0.5,23.5 -0.5,7.5C 1.5,4.16667 4.16667,1.5 7.5,-0.5 Z M 46.5,45.5 C 49.8984,45.1796 53.2317,45.513 56.5,46.5C 53.5,50.1667 50.1667,53.5 46.5,56.5C 45.2418,52.7897 45.2418,49.123 46.5,45.5 Z"/></g>
<g><path style="opacity:0.934" fill="#c8cecd" d="M 51.5,-0.5 C 54.1667,-0.5 56.8333,-0.5 59.5,-0.5C 60.5,1.16667 61.8333,2.5 63.5,3.5C 63.5,6.5 63.5,9.5 63.5,12.5C 51.3682,24.1313 39.3682,35.9647 27.5,48C 12.6667,54.5 8.5,50.3333 15,35.5C 27.0617,23.2708 39.2284,11.2708 51.5,-0.5 Z M 53.5,5.5 C 56.6802,5.17624 57.8469,6.50957 57,9.5C 45.8333,20.6667 34.6667,31.8333 23.5,43C 18.6667,45.5 17.5,44.3333 20,39.5C 31.3687,28.2984 42.5354,16.9651 53.5,5.5 Z"/></g>
</svg>
