<svg width="54.489990" height="23.248291" viewBox="0 0 54.49 23.2483" fill="none" xmlns="http://www.w3.org/2000/svg" xmlns:xlink="http://www.w3.org/1999/xlink">
	<desc>
			Created with Pixso.
	</desc>
	<defs/>
	<path id="logo" d="M0.200752 17.6511Q0.334254 17.749 0.539551 17.749L4.23828 17.749Q4.34085 17.749 4.43661 17.7235Q4.59727 17.6806 4.73877 17.5659Q4.87793 17.4493 4.94987 17.3003Q4.99469 17.2075 5.01343 17.1021L8.53516 0.646973Q8.56732 0.466077 8.50681 0.324895Q8.47545 0.251718 8.41919 0.189209Q8.36313 0.12237 8.2926 0.0791426Q8.16347 0 7.98584 0L4.28711 0Q4.19064 0 4.1002 0.0233397Q3.93314 0.0664539 3.78662 0.189209Q3.65464 0.296221 3.58311 0.434503Q3.53225 0.532832 3.51196 0.646973L0.0146484 17.1021Q-0.0233812 17.2922 0.0380513 17.4414Q0.0653546 17.5077 0.112305 17.5659Q0.151678 17.6151 0.200752 17.6511ZM10.6609 17.3523Q12.0891 17.9993 14.1643 17.9993Q16.4897 17.9993 18.0645 17.3523Q19.2448 16.8628 20.0856 16.0303Q20.3666 15.7522 20.6096 15.4358Q21.5862 14.1724 22.0623 12.3962Q22.2087 11.8713 22.3308 11.2488Q22.459 10.6262 22.5627 10.1013Q22.8374 8.30078 22.1355 7.04956Q21.9453 6.70756 21.7004 6.4107Q21.0493 5.6215 20.0115 5.15137Q18.5894 4.49829 16.5874 4.49829Q14.384 4.49829 12.7971 5.15137Q11.59 5.64351 10.7219 6.4853Q10.4488 6.75013 10.2092 7.04956Q9.21436 8.30078 8.71387 10.1013Q8.53687 10.6262 8.40869 11.2488Q8.28662 11.8713 8.21338 12.3962Q7.96313 14.1724 8.5979 15.4358Q8.77425 15.7834 9.00975 16.0849Q9.63009 16.8789 10.6609 17.3523ZM25.8098 22.7356Q27.061 23.2483 29.0142 23.2483Q30.6133 23.2483 31.9133 22.8821Q33.2134 22.522 34.2083 21.7957Q34.4512 21.6208 34.6733 21.4227Q35.3663 20.8043 35.8562 19.9585Q36.5093 18.8477 36.8389 17.3462L39.3352 5.40161Q39.3723 5.19318 39.3004 5.03397Q39.2775 4.98337 39.2437 4.93774Q39.2026 4.87997 39.1486 4.83983Q39.0255 4.74854 38.8347 4.74854L35.2092 4.74854Q35.1348 4.74854 35.0632 4.76241Q34.8701 4.79978 34.6965 4.93774Q34.5471 5.05963 34.4712 5.21697Q34.4292 5.30388 34.4097 5.40161L34.2144 6.25Q33.7627 5.47485 32.8105 4.98657Q31.8645 4.49829 30.5889 4.49829Q29.3621 4.49829 28.3489 4.88892Q27.7079 5.13216 27.1623 5.51219Q26.8453 5.7329 26.5605 5.99976Q25.7854 6.72607 25.2117 7.8125Q24.6379 8.89893 24.2595 10.2966Q24.1619 10.675 24.113 10.9497Q24.0642 11.2244 23.9849 11.5967Q23.7346 13.0981 23.9238 14.1724Q24.113 15.2466 24.6868 15.9485Q24.8366 16.1318 25.0093 16.2901Q25.498 16.7381 26.1699 16.9861Q27.0854 17.3218 28.3123 17.3218Q29.5146 17.3218 30.3264 16.9861Q30.4912 16.9179 30.6512 16.84Q31.2794 16.5339 31.834 16.0767L31.4861 17.749Q31.364 18.4509 31.0466 18.8721Q30.7354 19.2993 30.3203 19.4946Q29.9114 19.696 29.3865 19.696Q28.886 19.696 28.6357 19.574Q28.4614 19.4889 28.3463 19.3535Q28.2962 19.2946 28.2573 19.2261Q28.1353 19.0002 28.062 18.7744Q28.0132 18.5242 27.885 18.396Q27.7629 18.2739 27.5127 18.2739L23.46 18.2739Q23.3466 18.2739 23.2425 18.3051Q23.0946 18.3495 22.9656 18.457Q22.8378 18.5641 22.7647 18.7005Q22.7087 18.8051 22.6848 18.927Q22.636 19.3237 22.8862 20.0378Q23.1365 20.752 23.8506 21.4844Q24.5647 22.2229 25.8098 22.7356ZM42.5109 17.3523Q43.9391 17.9993 46.0143 17.9993Q48.3397 17.9993 49.9145 17.3523Q51.0948 16.8628 51.9356 16.0303Q52.2166 15.7522 52.4596 15.4358Q53.4362 14.1724 53.9123 12.3962Q54.0587 11.8713 54.1808 11.2488Q54.309 10.6262 54.4127 10.1013Q54.6874 8.30078 53.9855 7.04956Q53.7953 6.70756 53.5504 6.4107Q52.8993 5.6215 51.8615 5.15137Q50.4394 4.49829 48.4374 4.49829Q46.234 4.49829 44.6471 5.15137Q43.44 5.64351 42.5719 6.4853Q42.2988 6.75013 42.0592 7.04956Q41.0644 8.30078 40.5639 10.1013Q40.3869 10.6262 40.2587 11.2488Q40.1366 11.8713 40.0634 12.3962Q39.8131 14.1724 40.4479 15.4358Q40.6242 15.7834 40.8597 16.0849Q41.4801 16.8789 42.5109 17.3523ZM15.8859 14.0944Q15.4273 14.4714 14.6587 14.4714Q13.9131 14.4714 13.6388 14.1119Q13.5741 14.027 13.5356 13.9221Q13.3342 13.3728 13.4868 12.2742Q13.5356 11.9019 13.6821 11.2549Q13.8347 10.6018 13.9385 10.2234Q14.2131 9.14917 14.7014 8.58765Q14.8184 8.45309 14.9589 8.35077Q15.4047 8.02612 16.0869 8.02612Q16.8302 8.02612 17.1112 8.38653Q17.1809 8.47598 17.2222 8.58765Q17.4358 9.14917 17.2893 10.2234Q17.21 10.6018 17.0696 11.2549Q16.9353 11.9019 16.8376 12.2742Q16.5386 13.3728 16.0625 13.9221Q15.9809 14.0163 15.8859 14.0944ZM47.7359 14.0944Q47.2773 14.4714 46.5087 14.4714Q45.7631 14.4714 45.4888 14.1119Q45.4241 14.027 45.3856 13.9221Q45.1842 13.3728 45.3368 12.2742Q45.3856 11.9019 45.5321 11.2549Q45.6847 10.6018 45.7885 10.2234Q46.0631 9.14917 46.5514 8.58765Q46.6684 8.45309 46.8089 8.35077Q47.2547 8.02612 47.9369 8.02612Q48.6802 8.02612 48.9612 8.38653Q49.0309 8.47598 49.0722 8.58765Q49.2858 9.14917 49.1393 10.2234Q49.06 10.6018 48.9196 11.2549Q48.7853 11.9019 48.6876 12.2742Q48.3886 13.3728 47.9125 13.9221Q47.8309 14.0163 47.7359 14.0944ZM31.6082 13.2751Q31.1626 13.5254 30.5645 13.5254Q29.9114 13.5254 29.6123 13.2629Q29.5521 13.2101 29.5018 13.1492Q29.3022 12.9072 29.2583 12.5366Q29.2095 12.0728 29.2888 11.4746Q29.3132 11.2488 29.3743 10.9497Q29.4353 10.6506 29.5146 10.4492Q29.6611 9.85107 29.9358 9.38721Q30.1311 9.05729 30.4098 8.82927Q30.523 8.73668 30.6499 8.66089Q31.0894 8.39844 31.7119 8.39844Q32.3101 8.39844 32.6335 8.64868Q32.7826 8.76182 32.8817 8.90865Q33.0018 9.08658 33.0486 9.31396Q33.134 9.7229 33.0608 10.2478Q33.0364 10.4492 32.9326 10.9497Q32.835 11.4502 32.7617 11.676Q32.6091 12.2009 32.3345 12.616Q32.2554 12.7338 32.1615 12.8384Q31.9297 13.097 31.6082 13.2751Z" fill="#000000" fill-opacity="1.000000" fill-rule="evenodd"/>
</svg>
