<svg width="55.000000" height="23.000000" viewBox="0 0 55 23" fill="none" xmlns="http://www.w3.org/2000/svg" xmlns:xlink="http://www.w3.org/1999/xlink">
	<desc>
			Created with Pixso.
	</desc>
	<defs/>
	<path id="logo" d="M0.06 16.9Q0.19 17 0.4 17L4.1 17Q4.2 17 4.29 16.97Q4.46 16.93 4.6 16.81Q4.74 16.7 4.81 16.55Q4.85 16.45 4.87 16.35L8.39 -0.11Q8.43 -0.29 8.37 -0.43Q8.33 -0.5 8.28 -0.56Q8.22 -0.63 8.15 -0.67Q8.02 -0.75 7.84 -0.75L4.15 -0.75Q4.05 -0.75 3.96 -0.73Q3.79 -0.69 3.64 -0.56Q3.51 -0.46 3.44 -0.32Q3.39 -0.22 3.37 -0.11L-0.13 16.35Q-0.17 16.54 -0.1 16.69Q-0.08 16.75 -0.03 16.81Q0.01 16.86 0.06 16.9ZM10.52 16.6Q11.95 17.25 14.02 17.25Q16.35 17.25 17.92 16.6Q19.1 16.11 19.94 15.28Q20.22 15 20.47 14.68Q21.44 13.42 21.92 11.64Q22.07 11.12 22.19 10.49Q22.32 9.87 22.42 9.35Q22.7 7.55 21.99 6.3Q21.8 5.95 21.56 5.66Q20.91 4.87 19.87 4.4Q18.45 3.74 16.45 3.74Q14.24 3.74 12.66 4.4Q11.45 4.89 10.58 5.73Q10.31 6 10.07 6.3Q9.07 7.55 8.57 9.35Q8.4 9.87 8.27 10.49Q8.14 11.12 8.07 11.64Q7.82 13.42 8.46 14.68Q8.63 15.03 8.87 15.33Q9.49 16.12 10.52 16.6ZM25.67 21.98Q26.92 22.49 28.87 22.49Q30.47 22.49 31.77 22.13Q33.07 21.77 34.07 21.04Q34.31 20.87 34.53 20.67Q35.22 20.05 35.71 19.2Q36.37 18.09 36.7 16.59L39.19 4.65Q39.23 4.44 39.16 4.28Q39.14 4.23 39.1 4.18Q39.06 4.13 39.01 4.09Q38.88 3.99 38.69 3.99L35.07 3.99Q34.99 3.99 34.92 4.01Q34.73 4.05 34.55 4.18Q34.41 4.31 34.33 4.46Q34.29 4.55 34.27 4.65L34.07 5.5Q33.62 4.72 32.67 4.23Q31.72 3.74 30.45 3.74Q29.22 3.74 28.21 4.13Q27.57 4.38 27.02 4.76Q26.7 4.98 26.42 5.25Q25.64 5.97 25.07 7.06Q24.5 8.14 24.12 9.54Q24.02 9.92 23.97 10.2Q23.92 10.47 23.84 10.84Q23.59 12.34 23.78 13.42Q23.97 14.49 24.55 15.19Q24.69 15.38 24.87 15.54Q25.36 15.98 26.03 16.23Q26.94 16.57 28.17 16.57Q29.37 16.57 30.18 16.23Q30.35 16.16 30.51 16.09Q31.14 15.78 31.69 15.32L31.34 17Q31.22 17.7 30.9 18.12Q30.59 18.55 30.18 18.74Q29.77 18.94 29.24 18.94Q28.74 18.94 28.49 18.82Q28.32 18.73 28.2 18.6Q28.15 18.54 28.12 18.47Q27.99 18.25 27.92 18.02Q27.87 17.77 27.74 17.64Q27.62 17.52 27.37 17.52L23.32 17.52Q23.2 17.52 23.1 17.55Q22.95 17.6 22.82 17.7Q22.7 17.81 22.62 17.95Q22.57 18.05 22.54 18.17Q22.49 18.57 22.74 19.28Q22.99 20 23.71 20.73Q24.42 21.47 25.67 21.98ZM42.37 16.6Q43.8 17.25 45.87 17.25Q48.2 17.25 49.77 16.6Q50.95 16.11 51.79 15.28Q52.07 15 52.32 14.68Q53.29 13.42 53.77 11.64Q53.92 11.12 54.04 10.49Q54.17 9.87 54.27 9.35Q54.55 7.55 53.84 6.3Q53.65 5.95 53.41 5.66Q52.76 4.87 51.72 4.4Q50.3 3.74 48.3 3.74Q46.09 3.74 44.51 4.4Q43.3 4.89 42.43 5.73Q42.16 6 41.92 6.3Q40.92 7.55 40.42 9.35Q40.25 9.87 40.12 10.49Q39.99 11.12 39.92 11.64Q39.67 13.42 40.31 14.68Q40.48 15.03 40.72 15.33Q41.34 16.12 42.37 16.6ZM15.74 13.34Q15.29 13.72 14.52 13.72Q13.77 13.72 13.5 13.36Q13.43 13.27 13.39 13.17Q13.19 12.62 13.35 11.52Q13.39 11.15 13.54 10.5Q13.69 9.85 13.8 9.47Q14.07 8.4 14.56 7.83Q14.68 7.7 14.82 7.6Q15.26 7.27 15.95 7.27Q16.69 7.27 16.97 7.63Q17.04 7.72 17.08 7.83Q17.29 8.4 17.15 9.47Q17.07 9.85 16.93 10.5Q16.79 11.15 16.7 11.52Q16.4 12.62 15.92 13.17Q15.84 13.26 15.74 13.34ZM47.59 13.34Q47.14 13.72 46.37 13.72Q45.62 13.72 45.35 13.36Q45.28 13.27 45.24 13.17Q45.04 12.62 45.2 11.52Q45.24 11.15 45.39 10.5Q45.54 9.85 45.65 9.47Q45.92 8.4 46.41 7.83Q46.53 7.7 46.67 7.6Q47.11 7.27 47.8 7.27Q48.54 7.27 48.82 7.63Q48.89 7.72 48.93 7.83Q49.14 8.4 49 9.47Q48.92 9.85 48.78 10.5Q48.64 11.15 48.55 11.52Q48.25 12.62 47.77 13.17Q47.69 13.26 47.59 13.34ZM31.47 12.52Q31.02 12.77 30.42 12.77Q29.77 12.77 29.47 12.51Q29.41 12.46 29.36 12.4Q29.16 12.15 29.12 11.78Q29.07 11.32 29.15 10.72Q29.17 10.49 29.23 10.2Q29.29 9.9 29.37 9.7Q29.52 9.1 29.79 8.63Q29.99 8.3 30.27 8.08Q30.38 7.98 30.51 7.91Q30.95 7.64 31.57 7.64Q32.17 7.64 32.49 7.89Q32.64 8.01 32.74 8.15Q32.86 8.33 32.91 8.56Q32.99 8.97 32.92 9.49Q32.89 9.7 32.79 10.2Q32.69 10.7 32.62 10.92Q32.47 11.45 32.19 11.86Q32.11 11.98 32.02 12.08Q31.79 12.34 31.47 12.52Z" fill="#FFFFFF" fill-opacity="1.000000" fill-rule="evenodd"/>
</svg>
