
<svg width="8.000000" height="8.000000" viewBox="0 0 8 8" fill="none" xmlns="http://www.w3.org/2000/svg" xmlns:xlink="http://www.w3.org/1999/xlink">
	<desc>
			Created with Pixso.
	</desc>
	<defs/>
	<path id="path" d="M4.77 4L7.86 0.81C8.07 0.6 8.03 0.28 7.77 0.11C7.51 -0.07 7.14 -0.03 6.93 0.18L4 3.2L1.07 0.18C0.57 -0.32 -0.36 0.3 0.13 0.81L3.23 4L0.13 7.18C-0.07 7.4 -0.03 7.71 0.22 7.88C0.48 8.06 0.86 8.03 1.07 7.81L4 4.79L6.93 7.81C7.14 8.03 7.52 8.06 7.77 7.88C8.03 7.71 8.07 7.4 7.86 7.18L4.77 4Z" fill="#FFFFFF" fill-opacity="1.000000" fill-rule="nonzero"/>
</svg>
