<svg width="35.000000" height="30.000000" viewBox="0 0 35 30" fill="none" xmlns="http://www.w3.org/2000/svg" xmlns:xlink="http://www.w3.org/1999/xlink">
	<desc>
			Created with Pixso.
	</desc>
	<defs/>
	<path id="path" d="M24.78 -0.82C23.11 -0.79 21.56 -0.35 20.12 0.51C18.69 1.37 17.57 2.53 16.76 3.99C15.95 2.53 14.83 1.37 13.4 0.51C11.96 -0.35 10.41 -0.79 8.74 -0.82C7.43 -0.76 6.18 -0.46 4.99 0.09C3.8 0.64 2.77 1.4 1.88 2.36C0.99 3.33 0.32 4.42 -0.13 5.65C-0.59 6.88 -0.79 8.15 -0.74 9.46C-0.74 16.09 6.24 23.33 12.09 28.24C13.44 29.38 15 29.94 16.76 29.94C18.52 29.94 20.08 29.38 21.43 28.24C27.28 23.33 34.26 16.09 34.26 9.46C34.31 8.15 34.11 6.88 33.65 5.65C33.2 4.42 32.53 3.33 31.64 2.36C30.75 1.4 29.71 0.64 28.53 0.09C27.34 -0.46 26.09 -0.76 24.78 -0.82Z" fill="#88AEED" fill-opacity="1.000000" fill-rule="nonzero"/>
</svg>
