<svg width="35.000000" height="30.000000" viewBox="0 0 35 30" fill="none" xmlns="http://www.w3.org/2000/svg" xmlns:xlink="http://www.w3.org/1999/xlink">
	<desc>
			Created with Pixso.
	</desc>
	<defs/>
	<path id="path" d="M25.38 -0.97C23.71 -0.94 22.15 -0.5 20.72 0.36C19.29 1.22 18.17 2.38 17.36 3.84C16.55 2.38 15.43 1.22 13.99 0.36C12.56 -0.5 11.01 -0.94 9.34 -0.97C8.03 -0.91 6.78 -0.61 5.59 -0.06C4.4 0.5 3.36 1.25 2.48 2.22C1.59 3.18 0.92 4.28 0.46 5.51C0.01 6.73 -0.19 8 -0.14 9.31C-0.14 15.94 6.84 23.19 12.69 28.1C14.04 29.23 15.6 29.8 17.36 29.8C19.12 29.8 20.67 29.23 22.02 28.1C27.88 23.19 34.86 15.94 34.86 9.31C34.91 8 34.7 6.73 34.25 5.51C33.8 4.28 33.13 3.18 32.24 2.22C31.35 1.25 30.31 0.5 29.12 -0.06C27.94 -0.61 26.69 -0.91 25.38 -0.97ZM20.15 25.87C19.34 26.54 18.41 26.88 17.36 26.88C16.3 26.88 15.37 26.54 14.56 25.87C7.07 19.58 2.77 13.55 2.77 9.31C2.72 8.39 2.85 7.49 3.16 6.62C3.46 5.75 3.92 4.97 4.54 4.28C5.15 3.59 5.88 3.04 6.71 2.64C7.54 2.23 8.41 2 9.34 1.95C10.26 2 11.14 2.23 11.97 2.64C12.8 3.04 13.52 3.59 14.14 4.28C14.75 4.97 15.21 5.75 15.52 6.62C15.82 7.49 15.95 8.39 15.9 9.31C15.9 10.29 16.39 10.77 17.36 10.77C18.33 10.77 18.82 10.29 18.82 9.31C18.77 8.39 18.89 7.49 19.2 6.62C19.5 5.75 19.96 4.97 20.58 4.28C21.19 3.59 21.92 3.04 22.75 2.64C23.58 2.23 24.46 2 25.38 1.95C26.3 2 27.18 2.23 28.01 2.64C28.84 3.04 29.56 3.59 30.18 4.28C30.79 4.97 31.25 5.75 31.56 6.62C31.86 7.49 31.99 8.39 31.94 9.31C31.94 13.55 27.64 19.58 20.15 25.87Z" fill="#88AEED" fill-opacity="1.000000" fill-rule="nonzero"/>
</svg>
