<svg width="35.000000" height="35.000000" viewBox="0 0 35 35" fill="none" xmlns="http://www.w3.org/2000/svg" xmlns:xlink="http://www.w3.org/1999/xlink">
	<desc>
			Created with Pixso.
	</desc>
	<defs>
		<clipPath id="clip271_14">
			<rect id="home_gray" width="35.000000" height="35.000000" transform="translate(-0.505615 -0.618774)" fill="white" fill-opacity="0"/>
		</clipPath>
	</defs>
	<g clip-path="url(#clip271_14)">
		<path id="path" d="M33.21 12.6L22.15 1.54C21.46 0.86 20.67 0.33 19.78 -0.04C18.89 -0.41 17.96 -0.59 16.99 -0.59C16.02 -0.59 15.09 -0.41 14.2 -0.04C13.31 0.33 12.52 0.86 11.83 1.54L0.77 12.6C-0.09 13.45 -0.51 14.49 -0.51 15.7L-0.51 30.01C-0.51 31.22 -0.08 32.25 0.77 33.11C1.63 33.96 2.66 34.39 3.86 34.39L30.11 34.39C31.32 34.39 32.35 33.96 33.21 33.11C34.06 32.25 34.49 31.22 34.49 30.01L34.49 15.7C34.49 14.49 34.07 13.45 33.21 12.6ZM21.36 31.47L12.61 31.47L12.61 25.73C12.61 24.52 13.04 23.49 13.9 22.64C14.75 21.78 15.78 21.36 16.99 21.36C18.2 21.36 19.23 21.78 20.08 22.64C20.94 23.49 21.36 24.52 21.36 25.73L21.36 31.47ZM31.57 30.01C31.57 30.98 31.09 31.47 30.11 31.47L24.28 31.47L24.28 25.73C24.28 24.77 24.1 23.84 23.73 22.94C23.36 22.05 22.83 21.26 22.15 20.58C21.46 19.89 20.67 19.37 19.78 19C18.89 18.63 17.96 18.44 16.99 18.44C16.02 18.44 15.09 18.63 14.2 19C13.31 19.37 12.52 19.89 11.83 20.58C11.15 21.26 10.62 22.05 10.25 22.94C9.88 23.84 9.7 24.77 9.7 25.73L9.7 31.47L3.86 31.47C2.89 31.47 2.41 30.98 2.41 30.01L2.41 15.7C2.41 15.29 2.55 14.95 2.83 14.66L13.89 3.61C14.75 2.75 15.78 2.33 16.99 2.33C18.2 2.33 19.23 2.75 20.08 3.61L31.15 14.67C31.43 14.95 31.57 15.29 31.57 15.7L31.57 30.01Z" fill="#C9CFCD" fill-opacity="1.000000" fill-rule="nonzero"/>
	</g>
</svg>
