<svg width="512.000000" height="511.000000" viewBox="0 0 512 511" fill="none" xmlns="http://www.w3.org/2000/svg" xmlns:xlink="http://www.w3.org/1999/xlink">
	<desc>
			Created with Pixso.
	</desc>
	<defs/>
	<path id="path" d="M362.66 382.84L362.66 510.84L448 510.84C483.34 510.84 512 482.18 512 446.84L512 252.26C512 241.17 507.69 230.52 499.98 222.56L318.69 26.57C286.71 -8.04 232.72 -10.17 198.11 21.82C196.46 23.34 194.88 24.92 193.36 26.57L12.39 222.5C4.45 230.49 -0.01 241.31 0 252.58L0 446.84C0 482.18 28.65 510.84 64 510.84L149.33 510.84L149.33 382.84C149.73 324.66 196.69 277.16 253.4 275.79C312.01 274.38 362.22 322.69 362.66 382.84Z" fill="#88AEED" fill-opacity="1.000000" fill-rule="nonzero"/>
	<path id="path" d="M256 318.84C220.65 318.84 192 347.49 192 382.84L192 510.84L320 510.84L320 382.84C320 347.49 291.34 318.84 256 318.84Z" fill="#88AEED" fill-opacity="1.000000" fill-rule="nonzero"/>
</svg>
