<?xml version="1.0" encoding="UTF-8"?>
<svg xmlns="http://www.w3.org/2000/svg" id="Layer_1" data-name="Layer 1" viewBox="0 0 24 24">
  <path d="m2,20h10v2H0V3C0,1.346,1.346,0,3,0h16c1.654,0,3,1.346,3,3v9h-2V3c0-.552-.449-1-1-1H3c-.551,0-1,.448-1,1v10.132l4.28-4.28c1.099-1.098,2.886-1.1,3.985,0l5.734,5.735v1.414h-1.414l-5.734-5.734c-.319-.318-.838-.318-1.157,0l-5.694,5.694v4.04ZM15,3.5c1.654,0,3,1.346,3,3s-1.346,3-3,3-3-1.346-3-3,1.346-3,3-3Zm0,2c-.551,0-1,.448-1,1s.449,1,1,1,1-.448,1-1-.449-1-1-1Zm9,12.5h-4v-4h-2v4h-4v2h4v4h2v-4h4v-2Z"/>
</svg>
