<svg width="35.000000" height="35.000000" viewBox="0 0 35 35" fill="none" xmlns="http://www.w3.org/2000/svg" xmlns:xlink="http://www.w3.org/1999/xlink">
	<desc>
			Created with Pixso.
	</desc>
	<defs>
		<clipPath id="clip271_9">
			<rect id="location" width="35.000000" height="35.000000" transform="translate(-0.781494 -0.227661)" fill="white" fill-opacity="0"/>
		</clipPath>
	</defs>
	<g clip-path="url(#clip271_9)">
		<path id="path" d="M16.71 -0.17C14.78 -0.17 12.93 0.2 11.15 0.94C9.36 1.68 7.79 2.73 6.43 4.1C5.06 5.46 4.01 7.03 3.27 8.82C2.53 10.6 2.16 12.45 2.16 14.38C2.16 18.13 5.06 24 10.78 31.82C11.48 32.76 12.34 33.5 13.39 34.03C14.43 34.56 15.54 34.83 16.71 34.83C17.89 34.83 18.99 34.56 20.04 34.03C21.08 33.5 21.95 32.76 22.64 31.82C28.37 24 31.27 18.13 31.27 14.38C31.27 12.45 30.9 10.6 30.16 8.82C29.42 7.03 28.37 5.46 27 4.1C25.64 2.73 24.06 1.68 22.28 0.94C20.5 0.2 18.64 -0.17 16.71 -0.17ZM16.71 20.18C15.1 20.18 13.73 19.61 12.59 18.48C11.45 17.34 10.88 15.96 10.88 14.35C10.88 12.74 11.45 11.37 12.59 10.23C13.73 9.09 15.1 8.52 16.71 8.52C18.32 8.52 19.7 9.09 20.84 10.23C21.98 11.37 22.55 12.74 22.55 14.35C22.55 15.96 21.98 17.34 20.84 18.48C19.7 19.61 18.32 20.18 16.71 20.18Z" fill="#88AEED" fill-opacity="1.000000" fill-rule="nonzero"/>
	</g>
</svg>
