<?xml version="1.0" encoding="UTF-8"?>
<!DOCTYPE svg PUBLIC "-//W3C//DTD SVG 1.1//EN" "http://www.w3.org/Graphics/SVG/1.1/DTD/svg11.dtd">
<svg xmlns="http://www.w3.org/2000/svg" version="1.1" width="64px" height="64px" style="shape-rendering:geometricPrecision; text-rendering:geometricPrecision; image-rendering:optimizeQuality; fill-rule:evenodd; clip-rule:evenodd" xmlns:xlink="http://www.w3.org/1999/xlink">
<g><path style="opacity:0.943" fill="#88aeed" d="M 7.5,-0.5 C 21.8333,-0.5 36.1667,-0.5 50.5,-0.5C 37.9255,10.571 25.7588,22.2377 14,34.5C 10.5238,39.4983 9.85714,44.8316 12,50.5C 17.7354,53.207 23.2354,52.707 28.5,49C 40.7623,37.2412 52.429,25.0745 63.5,12.5C 63.5,22.5 63.5,32.5 63.5,42.5C 58.4889,42.3341 53.4889,42.5007 48.5,43C 45.6667,43.8333 43.8333,45.6667 43,48.5C 42.5007,53.4889 42.3341,58.4889 42.5,63.5C 30.8333,63.5 19.1667,63.5 7.5,63.5C 4.16667,61.5 1.5,58.8333 -0.5,55.5C -0.5,39.5 -0.5,23.5 -0.5,7.5C 1.5,4.16667 4.16667,1.5 7.5,-0.5 Z"/></g>
<g><path style="opacity:0.932" fill="#88aeed" d="M 49.5,4.5 C 57.0001,3.16572 59.8334,6.16572 58,13.5C 47.1667,24.3333 36.3333,35.1667 25.5,46C 22.3117,47.3158 18.9783,47.8158 15.5,47.5C 15.1842,44.0217 15.6842,40.6883 17,37.5C 28.0354,26.6318 38.8688,15.6318 49.5,4.5 Z"/></g>
<g><path style="opacity:0.876" fill="#88aeed" d="M 63.5,47.5 C 63.5,47.8333 63.5,48.1667 63.5,48.5C 59.5,54.5 54.5,59.5 48.5,63.5C 48.1667,63.5 47.8333,63.5 47.5,63.5C 47.5,58.1667 47.5,52.8333 47.5,47.5C 52.8333,47.5 58.1667,47.5 63.5,47.5 Z"/></g>
</svg>
