<svg width="511.000000" height="511.000000" viewBox="0 0 511 511" fill="none" xmlns="http://www.w3.org/2000/svg" xmlns:xlink="http://www.w3.org/1999/xlink">
	<desc>
			Created with Pixso.
	</desc>
	<defs/>
	<path id="path" d="M504.74 474.58L377.9 347.73C408.02 310.93 426.13 263.93 426.13 212.8C426.11 95.17 330.41 -0.56 212.78 -0.56C95.14 -0.56 -0.56 95.17 -0.56 212.78C-0.56 330.39 95.14 426.11 212.78 426.11C263.93 426.11 310.93 408 347.71 377.88L474.56 504.72C478.72 508.88 484.18 510.97 489.64 510.97C495.1 510.97 500.56 508.88 504.72 504.72C513.06 496.38 513.09 482.92 504.74 474.58ZM287.74 266.41L248.89 304.4C238.8 314.28 225.58 319.19 212.33 319.19C199.08 319.19 185.85 314.28 175.74 304.4L137.09 266.58C116.78 246.29 105.66 219.5 105.66 191C105.66 162.49 116.78 135.7 136.92 115.58C157.03 95.44 183.83 84.33 212.33 84.33C240.83 84.33 267.6 95.44 287.74 115.58C307.88 135.72 319 162.49 319 191C319 219.5 307.88 246.29 287.74 266.41ZM212.33 127C195.22 127 179.16 133.65 167.1 145.75C155.01 157.82 148.33 173.89 148.33 191C148.33 208.1 154.98 224.17 167.08 236.24L205.59 273.92C209.3 277.54 215.36 277.54 219.07 273.92L257.75 236.09C269.67 224.17 276.33 208.1 276.33 191.02C276.33 173.93 269.65 157.84 257.58 145.77C245.5 133.69 229.42 127 212.33 127ZM212.33 212.18C200.55 212.18 191 202.62 191 190.85C191 179.07 200.55 169.51 212.33 169.51C224.1 169.51 233.66 179.07 233.66 190.85C233.66 202.62 224.1 212.18 212.33 212.18Z" fill="#88AEED" fill-opacity="1.000000" fill-rule="nonzero"/>
</svg>
