<svg width="35.000000" height="35.000000" viewBox="0 0 35 35" fill="none" xmlns="http://www.w3.org/2000/svg" xmlns:xlink="http://www.w3.org/1999/xlink">
	<desc>
			Created with Pixso.
	</desc>
	<defs/>
	<path id="path" d="M33.99 31.69L25.32 23.02C27.38 20.51 28.62 17.29 28.62 13.8C28.62 5.76 22.08 -0.79 14.04 -0.79C5.99 -0.79 -0.55 5.76 -0.55 13.8C-0.55 21.84 5.99 28.38 14.04 28.38C17.53 28.38 20.75 27.14 23.26 25.08L31.93 33.75C32.22 34.04 32.59 34.18 32.96 34.18C33.33 34.18 33.71 34.04 33.99 33.75C34.56 33.18 34.56 32.26 33.99 31.69ZM19.16 17.46L16.5 20.06C15.81 20.73 14.91 21.07 14 21.07C13.1 21.07 12.2 20.73 11.5 20.06L8.86 17.47C7.47 16.09 6.71 14.26 6.71 12.31C6.71 10.36 7.47 8.53 8.85 7.15C10.22 5.77 12.06 5.02 14 5.02C15.95 5.02 17.78 5.77 19.16 7.15C20.54 8.53 21.3 10.36 21.3 12.31C21.3 14.26 20.54 16.09 19.16 17.46ZM14 7.93C12.84 7.93 11.74 8.39 10.91 9.21C10.09 10.04 9.63 11.14 9.63 12.31C9.63 13.48 10.08 14.57 10.91 15.4L13.54 17.98C13.8 18.22 14.21 18.22 14.47 17.98L17.11 15.39C17.92 14.57 18.38 13.48 18.38 12.31C18.38 11.14 17.92 10.04 17.1 9.22C16.27 8.39 15.17 7.93 14 7.93ZM14 13.75C13.2 13.75 12.55 13.1 12.55 12.3C12.55 11.49 13.2 10.84 14 10.84C14.81 10.84 15.46 11.49 15.46 12.3C15.46 13.1 14.81 13.75 14 13.75Z" fill="#88AEED" fill-opacity="1.000000" fill-rule="nonzero"/>
</svg>
